<?xml version="1.0" standalone="no"?>
<!DOCTYPE svg PUBLIC "-//W3C//DTD SVG 20010904//EN"
 "http://www.w3.org/TR/2001/REC-SVG-20010904/DTD/svg10.dtd">
<svg version="1.0" xmlns="http://www.w3.org/2000/svg"
 width="3550.000000pt" height="2023.000000pt" viewBox="0 0 3550.000000 2023.000000"
 preserveAspectRatio="xMidYMid meet">

<g transform="translate(0.000000,2023.000000) scale(0.100000,-0.100000)"
fill="#000000" stroke="none">
<path d="M5215 15359 c-1378 -98 -2682 -754 -3597 -1812 -855 -989 -1305
-2243 -1275 -3552 18 -803 193 -1513 548 -2225 262 -525 570 -952 994 -1375
347 -348 690 -612 1104 -849 1487 -855 3316 -924 4867 -186 1873 892 3057
2815 3001 4875 -22 797 -194 1497 -542 2200 -259 525 -551 936 -959 1352 -914
934 -2097 1481 -3398 1573 -169 12 -568 11 -743 -1z m820 -915 c406 -42 819
-144 1193 -296 146 -59 397 -176 391 -182 -2 -3 -50 8 -105 24 -483 135 -902
114 -1282 -65 -248 -117 -425 -259 -697 -557 -66 -73 -73 -78 -131 -89 -59
-12 -60 -13 -42 -31 43 -43 8 -128 -53 -128 l-31 0 36 -42 c20 -23 39 -57 42
-75 4 -19 1 -103 -5 -186 -12 -163 -4 -316 24 -482 21 -120 43 -204 131 -500
103 -345 140 -494 155 -616 18 -160 3 -331 -50 -549 -35 -144 -25 -228 37
-294 59 -62 211 -150 311 -180 149 -44 338 4 527 135 119 83 170 147 270 341
166 323 274 418 537 472 69 15 137 31 149 36 14 5 -158 9 -462 9 l-484 1 49
51 c64 64 183 124 287 144 42 8 146 17 230 21 301 11 410 45 527 163 81 80
145 201 216 401 84 238 124 295 232 326 120 35 241 -1 327 -97 60 -67 202
-338 308 -589 39 -91 158 -405 158 -415 0 -3 -186 -6 -413 -7 l-414 -3 44
-135 c69 -215 84 -279 84 -363 0 -61 -5 -89 -24 -130 -46 -101 -140 -181 -300
-255 -300 -140 -441 -299 -514 -581 -19 -76 -24 -121 -24 -216 0 -200 48 -350
183 -566 115 -183 177 -330 194 -461 4 -29 9 -47 11 -40 4 9 78 12 328 12
l324 0 -5 -37 c-45 -322 -176 -551 -408 -708 -152 -103 -256 -120 -369 -61
l-65 33 -35 -46 c-51 -67 -192 -200 -268 -254 -193 -136 -426 -208 -633 -194
-304 21 -579 194 -702 442 -61 124 -54 229 18 259 50 21 81 10 160 -61 300
-265 668 -271 928 -14 95 94 151 200 181 343 37 181 23 310 -50 463 -98 204
-236 341 -451 446 -266 130 -632 147 -922 43 -430 -155 -760 -542 -849 -999
-21 -107 -19 -418 4 -525 63 -294 207 -565 420 -787 274 -286 622 -491 989
-582 184 -46 308 -61 525 -61 364 0 616 53 978 205 128 53 126 48 -9 -30 -486
-278 -1027 -458 -1621 -537 -149 -20 -214 -22 -520 -23 -375 0 -493 9 -775 61
-1172 215 -2200 891 -2854 1879 -229 345 -380 653 -506 1033 -400 1201 -259
2513 384 3591 748 1251 2042 2040 3495 2131 175 11 494 3 686 -16z m1030
-1926 c54 -25 97 -141 97 -266 -1 -191 -109 -372 -297 -497 -202 -135 -369
-158 -467 -65 -67 64 -41 94 122 142 139 40 212 78 286 150 63 60 121 155 143
233 7 22 16 92 21 157 4 64 13 126 19 137 13 24 38 27 76 9z m2353 -358 c68
-121 198 -390 216 -447 5 -17 4 -22 -6 -18 -7 3 -92 6 -188 8 -155 3 -181 6
-225 26 -94 42 -125 89 -125 191 0 72 19 114 91 203 28 34 69 95 92 134 50 86
36 95 145 -97z m477 -1370 c41 -261 67 -683 51 -853 l-8 -78 -38 35 c-21 19
-99 64 -173 99 -230 112 -314 212 -305 362 9 137 107 265 316 414 57 41 110
85 119 98 9 13 17 22 19 20 2 -1 10 -46 19 -97z m-132 -1677 l68 -6 -7 -31
c-43 -203 -249 -775 -296 -821 -15 -15 -232 217 -263 280 -87 178 12 443 200
536 87 42 171 54 298 42z"/>
<path d="M4165 13275 c-863 -202 -1563 -843 -1834 -1678 -84 -260 -121 -500
-121 -785 0 -359 55 -632 176 -873 61 -123 116 -200 201 -280 167 -157 357
-227 587 -217 194 9 349 78 486 217 84 85 147 196 177 311 23 88 23 263 -1
349 -69 251 -269 445 -516 497 -117 25 -312 15 -410 -20 -113 -41 -128 -43
-138 -15 -35 94 -44 402 -17 584 53 351 203 709 420 1000 76 102 266 293 370
372 218 164 442 277 703 353 53 16 87 29 74 29 -32 1 -82 53 -82 86 0 31 24
81 42 88 30 12 -23 4 -117 -18z"/>
<path d="M7920 11325 c13 -14 26 -25 28 -25 3 0 -5 11 -18 25 -13 14 -26 25
-28 25 -3 0 5 -11 18 -25z"/>
<path d="M7662 8330 c0 -19 2 -27 5 -17 2 9 2 25 0 35 -3 9 -5 1 -5 -18z"/>
<path d="M7662 8250 c0 -19 2 -27 5 -17 2 9 2 25 0 35 -3 9 -5 1 -5 -18z"/>
<path d="M21613 14290 c-111 -22 -216 -102 -228 -174 -3 -17 -10 -143 -15
-280 l-11 -249 23 -46 c27 -55 86 -101 165 -131 49 -19 91 -23 263 -31 221
-10 290 -20 360 -52 59 -28 122 -93 137 -140 9 -30 4 -220 -22 -900 -46 -1149
-45 -1079 -13 -1150 33 -70 117 -161 179 -193 61 -30 75 -32 549 -49 607 -23
607 -23 661 3 90 44 173 134 204 223 11 31 23 255 49 942 20 496 37 931 39
967 7 120 68 191 197 231 58 18 88 20 290 17 205 -3 230 -1 279 17 70 26 147
95 161 143 5 20 14 150 20 287 l10 250 -28 54 c-48 96 -149 147 -312 157 -93
6 -2897 115 -2908 113 -4 -1 -26 -5 -49 -9z"/>
<path d="M19085 14174 c-551 -37 -942 -149 -1233 -354 -333 -234 -531 -621
-581 -1134 -14 -141 -14 -491 0 -632 79 -818 515 -1284 1349 -1443 242 -46
376 -56 760 -56 403 0 528 10 803 65 719 144 1130 533 1262 1194 34 171 45
308 45 551 0 330 -31 560 -106 785 -73 219 -169 376 -323 530 -269 268 -623
411 -1181 475 -130 16 -660 28 -795 19z m557 -603 c135 -43 208 -119 253 -264
46 -143 58 -258 59 -527 2 -656 -119 -842 -549 -844 -253 -1 -403 71 -476 228
-72 154 -105 390 -96 681 14 413 90 618 261 699 90 43 175 56 336 52 114 -3
159 -8 212 -25z"/>
<path d="M28580 14173 c-228 -21 -366 -48 -513 -100 -567 -197 -856 -660 -927
-1483 -13 -150 -13 -612 1 -765 85 -997 508 -1491 1354 -1585 148 -16 498 -14
640 5 378 49 639 167 856 384 291 290 433 715 459 1370 32 837 -110 1417 -433
1759 -272 287 -685 426 -1249 420 -84 0 -169 -3 -188 -5z m157 -901 c113 -43
171 -122 212 -283 37 -144 46 -270 46 -604 -1 -350 -14 -486 -60 -634 -59
-185 -172 -265 -375 -264 -163 0 -284 65 -342 185 -79 160 -120 537 -99 905
28 488 98 647 311 709 67 20 241 12 307 -14z"/>
<path d="M31070 14157 c-52 -15 -105 -45 -137 -79 -53 -56 -50 20 -74 -1653
-12 -858 -19 -1573 -15 -1588 10 -43 80 -112 139 -138 50 -22 67 -23 407 -31
195 -5 456 -7 580 -6 l225 3 55 31 c32 18 68 49 85 73 l30 43 8 446 c6 340 11
454 22 478 25 58 137 84 198 46 15 -9 209 -255 430 -547 441 -579 439 -577
553 -594 32 -5 312 -12 621 -16 525 -6 567 -6 620 11 73 23 147 91 161 149 6
23 19 698 32 1593 l22 1552 -22 45 c-25 51 -63 84 -135 116 -47 21 -68 22
-575 31 -289 5 -547 6 -574 3 -92 -11 -183 -72 -213 -143 -11 -26 -15 -126
-20 -433 -4 -256 -10 -407 -17 -421 -28 -54 -111 -81 -180 -58 -31 10 -96 85
-441 505 -223 272 -420 505 -438 519 -66 50 -98 54 -468 60 -189 3 -454 8
-589 11 -179 3 -257 1 -290 -8z"/>
<path d="M15570 14090 c-376 -16 -700 -33 -720 -39 -48 -14 -106 -65 -131
-114 -20 -38 -22 -73 -40 -611 -10 -314 -18 -597 -19 -629 0 -51 -4 -61 -33
-93 -60 -65 -168 -55 -203 19 -8 18 -54 309 -103 648 -82 572 -91 619 -115
656 -27 40 -81 77 -137 93 -27 8 -1442 -40 -1595 -54 -60 -5 -118 -32 -155
-73 -48 -51 -59 -85 -59 -180 1 -219 119 -3071 128 -3094 16 -41 71 -98 116
-121 49 -26 93 -26 524 -3 200 10 301 20 325 30 50 21 95 62 119 108 26 53 27
40 -17 946 -19 398 -32 728 -29 733 3 4 16 8 29 8 28 0 -9 98 326 -863 287
-824 282 -812 373 -859 40 -20 49 -21 306 -14 146 4 333 11 417 15 144 7 154
9 200 37 95 59 82 15 295 989 l193 880 29 0 30 0 -3 -70 c-1 -38 -20 -424 -41
-857 -28 -575 -36 -796 -29 -823 14 -51 81 -120 136 -141 42 -16 70 -17 401
-5 519 19 589 24 637 49 51 26 79 56 104 113 l20 45 -60 1565 -60 1564 -27 55
c-22 44 -39 62 -82 88 l-54 32 -156 -1 c-85 -1 -463 -14 -840 -29z"/>
<path d="M25295 14028 c-16 -6 -49 -24 -72 -39 -81 -56 -67 60 -211 -1683 -97
-1176 -127 -1577 -120 -1603 14 -50 84 -117 145 -137 45 -15 125 -16 819 -14
768 3 769 3 810 25 54 29 111 94 119 135 4 18 -23 739 -59 1601 -71 1715 -63
1607 -130 1664 -77 65 -52 63 -691 62 -385 0 -590 -4 -610 -11z"/>
<path d="M22261 10468 c-47 -23 -95 -87 -111 -148 -5 -19 -151 -870 -325
-1890 -251 -1472 -315 -1865 -310 -1904 12 -97 62 -176 129 -207 38 -17 71
-19 409 -19 310 0 373 2 405 15 80 34 115 89 143 222 23 111 53 170 106 210
l36 28 260 3 259 3 42 -25 c55 -32 93 -91 113 -174 31 -134 43 -168 74 -206
63 -75 66 -76 490 -76 207 0 390 3 407 6 42 8 108 67 134 118 49 94 58 26
-291 2041 -355 2048 -330 1927 -419 1990 l-44 30 -731 3 -732 2 -44 -22z m847
-1061 c14 -17 202 -1233 202 -1307 0 -71 -44 -166 -98 -210 -45 -37 -130 -70
-181 -70 -140 0 -264 111 -286 256 -6 41 185 1278 205 1322 9 20 17 22 79 22
44 0 72 -5 79 -13z"/>
<path d="M33700 10149 c-408 -16 -685 -92 -886 -243 -283 -212 -408 -613 -374
-1193 46 -778 320 -1032 1250 -1157 257 -35 284 -41 316 -79 53 -63 8 -140
-103 -174 -84 -26 -577 -25 -899 1 -127 10 -248 16 -269 12 -27 -5 -53 -22
-91 -60 -78 -79 -82 -100 -86 -461 -3 -295 -3 -301 20 -350 49 -105 96 -134
283 -169 515 -97 1134 -99 1504 -5 243 62 456 200 581 375 95 132 166 323 194
520 40 284 9 765 -64 976 -65 187 -214 340 -431 443 -154 73 -299 115 -643
185 -227 46 -349 79 -388 105 -37 24 -58 78 -45 118 14 43 38 55 124 67 199
27 766 30 984 5 110 -13 215 44 259 139 23 50 24 56 24 357 0 333 -4 366 -56
441 -49 69 -95 89 -267 109 -308 35 -646 49 -937 38z"/>
<path d="M18520 10098 c-19 -13 -45 -41 -57 -63 l-23 -40 0 -1777 c0 -1231 3
-1785 11 -1805 14 -38 57 -83 96 -99 26 -11 126 -14 505 -14 539 0 531 -1 585
81 l28 42 5 376 c4 268 8 382 17 397 21 37 81 83 118 90 49 9 119 -19 149 -59
31 -41 33 -49 121 -465 50 -238 81 -364 95 -387 11 -19 40 -43 64 -54 41 -20
57 -21 516 -21 452 0 476 1 514 20 23 11 52 36 65 55 47 70 45 85 -104 639
-148 547 -151 569 -106 625 177 218 251 375 300 637 65 343 51 783 -35 1081
-53 188 -180 392 -303 488 -163 128 -353 202 -629 247 -132 21 -168 22 -1017
25 l-880 4 -35 -23z m1552 -711 c168 -83 242 -295 241 -692 -1 -357 -54 -516
-197 -590 -55 -28 -67 -30 -198 -33 -212 -6 -276 19 -327 127 l-26 56 -3 393
c-2 258 0 424 8 480 18 139 70 231 155 277 24 13 56 15 160 13 119 -3 135 -5
187 -31z"/>
<path d="M25765 10110 c-223 -26 -393 -72 -545 -150 -224 -116 -356 -281 -449
-566 -107 -327 -147 -711 -138 -1334 7 -496 36 -752 114 -1025 113 -396 336
-633 693 -736 297 -86 853 -83 1295 6 208 42 237 56 282 132 l28 48 -3 340
c-1 187 -7 355 -12 374 -13 46 -47 93 -88 122 -40 27 -45 28 -567 19 -256 -5
-285 -3 -335 14 -133 45 -213 151 -246 324 -38 200 -44 775 -10 967 28 155 52
213 110 270 113 112 296 133 805 94 164 -13 200 -7 257 43 69 61 69 59 84 476
7 184 7 277 -1 313 -12 56 -59 124 -104 150 -35 20 -256 68 -460 99 -158 25
-567 36 -710 20z"/>
<path d="M15660 10019 c-861 -14 -810 -11 -855 -36 -22 -12 -52 -34 -66 -50
-59 -62 -59 -63 -109 -639 -51 -595 -49 -582 -118 -611 -60 -25 -131 0 -162
57 -4 8 -36 254 -70 545 -57 488 -64 534 -88 585 -30 60 -85 106 -143 119 -19
4 -453 4 -965 -1 -903 -10 -930 -10 -977 -30 -56 -24 -113 -86 -129 -142 -16
-52 16 -3440 33 -3499 13 -48 70 -112 123 -140 40 -20 50 -21 492 -18 249 1
468 6 489 11 81 18 155 93 173 175 5 24 -1 490 -15 1169 -12 622 -21 1131 -20
1132 1 0 14 4 29 8 23 5 27 2 32 -22 3 -15 78 -522 166 -1127 89 -605 167
-1118 176 -1141 20 -57 87 -121 144 -138 38 -11 120 -13 421 -9 379 5 420 9
472 45 69 49 68 46 347 1007 l265 916 31 3 31 3 -108 -858 c-60 -472 -109
-882 -109 -911 0 -95 52 -173 141 -212 l52 -22 456 7 c425 7 459 9 504 27 56
24 98 69 122 132 17 44 17 125 1 1748 -9 937 -19 1717 -23 1733 -19 100 -102
176 -203 187 -25 3 -268 1 -540 -3z"/>
<path d="M17067 9920 c-44 -13 -95 -57 -117 -100 -20 -39 -20 -62 -20 -1891
l0 -1853 21 -43 c12 -24 37 -56 57 -71 l35 -27 426 -3 c234 -1 436 0 448 3 35
8 94 66 114 110 18 38 19 122 19 1881 l0 1840 -26 52 c-19 39 -38 59 -72 80
l-47 27 -405 2 c-223 1 -418 -2 -433 -7z"/>
<path d="M30811 9895 c-739 -24 -1084 -38 -1103 -46 -31 -13 -72 -61 -80 -95
-3 -11 14 -754 37 -1651 40 -1563 42 -1631 61 -1664 11 -19 36 -43 56 -54 36
-19 41 -19 1145 14 1230 36 1144 29 1187 102 21 36 21 52 10 514 -7 307 -14
333 -86 364 -41 17 -65 17 -573 3 -291 -9 -543 -12 -559 -8 -65 16 -114 106
-100 182 8 46 55 100 97 113 18 5 208 15 422 21 431 12 414 9 463 81 l24 34
-6 335 c-8 427 -8 425 -58 474 l-38 39 -358 -9 c-493 -12 -476 -13 -508 12
-71 53 -90 121 -52 193 42 81 23 78 633 96 414 13 546 20 566 31 37 18 67 59
75 98 3 18 1 194 -5 390 -9 315 -12 361 -28 388 -25 44 -63 69 -109 73 -21 2
-522 -12 -1113 -30z"/>
<path d="M27539 9727 c-29 -15 -54 -40 -74 -71 l-29 -48 -49 -1596 c-38 -1266
-46 -1605 -36 -1637 17 -61 82 -120 147 -134 72 -15 1789 -16 1860 0 63 13
125 65 147 122 14 37 16 84 13 344 l-3 301 -30 43 c-16 23 -50 53 -74 66 -44
23 -46 23 -406 23 -244 0 -373 4 -396 11 -52 18 -97 56 -121 102 -28 52 -29
-30 27 1289 34 788 42 1045 33 1070 -16 50 -55 96 -98 118 -37 19 -60 20 -453
20 l-414 0 -44 -23z"/>
</g>
</svg>
